# xmcd
#
# Track frame offsets:
# 150
# 13127
# 32792
# 44555
# 56115
# 68172
# 80072
# 92745
# 105932
# 119227
#
# Disc length: 1765 seconds
#
#
# Revision: 0
# Processed by: cddbd v1.5.2PL0 Copyright (c) Steve Scherf et al.
# Submitted via: FreeRIP 2.90 
#
DISCID=8c06e30a
DTITLE=Various Artist - Best of Country - Volume 1
DYEAR=1993
DGENRE=Country
TTITLE0=Lynn Anderson - Rose Garden
TTITLE1=Marty Robbins - El Paso
TTITLE2=Johnny Cash - Ring Of Fire
TTITLE3=Charlie Rich - The Most Beautiful Girl
TTITLE4=Tammy Wynette - Stand By Your Man
TTITLE5=Guy Mitchell - Heartaches By The Number
TTITLE6=Johnny Horton - North To Alaska
TTITLE7=Johnny Cash and June Carter - If I Were A Carpenter
TTITLE8=Tammy Wynette - D.I.V.O.R.C.E
TTITLE9=Charlie Rich - Behind Closed Doors
EXTD=Sony Compilation
EXTT0=
EXTT1=
EXTT2=
EXTT3=
EXTT4=
EXTT5=
EXTT6=
EXTT7=
EXTT8=
EXTT9=
PLAYORDER=
